D:\school\WTK\thesis\model\3dpredictsim\Results\Batchsim_tmt_linear\Pog_s1_tmt_bCst_d05_k800_ig24_pas_GRF.mot
nRows=30
nColumns=19

name D:\school\WTK\thesis\model\3dpredictsim\Results\Batchsim_tmt_linear\Pog_s1_tmt_bCst_d05_k800_ig24_pas_GRF.mot
datacolumns 19
datarows 30
range 0.0000000000 0.3207193906
endheader
time 	ground_force_vx	ground_force_vy	ground_force_vz	ground_force_px	ground_force_py	ground_force_pz	1_ground_force_vx	1_ground_force_vy	1_ground_force_vz	1_ground_force_px	1_ground_force_py	1_ground_force_pz	ground_torque_x	ground_torque_y	ground_torque_z	1_ground_torque_x	1_ground_torque_y	1_ground_torque_z
        0.0000000000	      -56.2959894506	       41.1543102241	       17.2366109918	        0.1744379721	        0.0000000000	        0.0409252187	      105.2083910562	      546.9369076032	       -1.6365468383	       -0.3062915112	        0.0000000000	       -0.0356749895	        0.0000000000	        0.0000000000	        0.0000000000	        0.0000000000	        0.0000000000	        0.0000000000	
        0.0110592893	     -100.2796932716	       93.1205525881	       43.0103636497	        0.1843831060	        0.0000000000	        0.0378525736	       94.1180623949	      470.1778197290	       -5.0975563749	       -0.3034202264	        0.0000000000	       -0.0350440673	        0.0000000000	        0.0000000000	        0.0000000000	        0.0000000000	        0.0000000000	        0.0000000000	
        0.0221185787	      -91.7516976792	      195.0850305856	       75.7118565930	        0.1906387443	        0.0000000000	        0.0360613472	       75.9104154179	      387.0410017892	      -10.2017689243	       -0.2993023284	        0.0000000000	       -0.0338260367	        0.0000000000	        0.0000000000	        0.0000000000	        0.0000000000	        0.0000000000	        0.0000000000	
        0.0331778680	      -46.2103497092	      353.1172401356	       16.8751373882	        0.1946867379	        0.0000000000	        0.0343320801	       55.5499267691	      299.6457267216	       -7.5142675876	       -0.2929092172	        0.0000000000	       -0.0313131380	        0.0000000000	        0.0000000000	        0.0000000000	        0.0000000000	        0.0000000000	        0.0000000000	
        0.0442371573	      -51.0171174653	      519.6731252258	       -2.2473998085	        0.1999932490	        0.0000000000	        0.0353076263	       27.3638332710	      198.1449501747	       -6.1562315393	       -0.2804601800	        0.0000000000	       -0.0256862982	        0.0000000000	        0.0000000000	        0.0000000000	        0.0000000000	        0.0000000000	        0.0000000000	
        0.0552964467	      -85.4468514953	      695.9445271355	       -9.4006163539	        0.2079778889	        0.0000000000	        0.0377382526	        7.8977899462	      137.8851048027	      -10.5572116533	       -0.2674840370	        0.0000000000	       -0.0189927078	        0.0000000000	        0.0000000000	        0.0000000000	        0.0000000000	        0.0000000000	        0.0000000000	
        0.0663557360	     -106.9056672834	      805.5159214612	      -12.6136666069	        0.2135391894	        0.0000000000	        0.0393195758	        1.5662072724	      108.3648930678	      -11.7380640538	       -0.2675727020	        0.0000000000	       -0.0192878654	        0.0000000000	        0.0000000000	        0.0000000000	        0.0000000000	        0.0000000000	        0.0000000000	
        0.0774150253	     -111.1180592548	      844.0209565868	      -13.5921093101	        0.2173704246	        0.0000000000	        0.0402705635	       -2.2459411298	       70.9334251619	      -10.7772243260	       -0.2670881397	        0.0000000000	       -0.0193383440	        0.0000000000	        0.0000000000	        0.0000000000	        0.0000000000	        0.0000000000	        0.0000000000	
        0.0884743146	     -106.2375311069	      839.7958905078	      -13.8857132631	        0.2204116865	        0.0000000000	        0.0408286670	       -8.1415531499	       29.3266494537	       -5.7301386800	       -0.2674087961	        0.0000000000	       -0.0191448257	        0.0000000000	        0.0000000000	        0.0000000000	        0.0000000000	        0.0000000000	        0.0000000000	
        0.0995336040	      -96.8843024404	      821.0379654717	      -14.2333907703	        0.2235051120	        0.0000000000	        0.0411165263	        0.0932284754	       -0.0925698435	        0.0019670037	        0.0000000000	        0.0000000000	        0.0000000000	        0.0000000000	        0.0000000000	        0.0000000000	        0.0000000000	        0.0000000000	        0.0000000000	
        0.1105928933	      -84.7238628395	      791.5985613173	      -15.0011668665	        0.2267408438	        0.0000000000	        0.0412373780	        0.0001128801	       -0.0000920936	       -0.0000063965	        0.0000000000	        0.0000000000	        0.0000000000	        0.0000000000	        0.0000000000	        0.0000000000	        0.0000000000	        0.0000000000	        0.0000000000	
        0.1216521826	      -73.2088437719	      757.4189660278	      -15.2803721329	        0.2303997063	        0.0000000000	        0.0412793795	        0.0000433024	       -0.0000307293	       -0.0000032174	        0.0000000000	        0.0000000000	        0.0000000000	        0.0000000000	        0.0000000000	        0.0000000000	        0.0000000000	        0.0000000000	        0.0000000000	
        0.1327114720	      -63.6128315495	      726.3629991910	      -15.3956841904	        0.2347258099	        0.0000000000	        0.0411996991	        0.0004090630	       -0.0002602177	       -0.0000338625	        0.0000000000	        0.0000000000	        0.0000000000	        0.0000000000	        0.0000000000	        0.0000000000	        0.0000000000	        0.0000000000	        0.0000000000	
        0.1437707613	      -54.2183188233	      696.1311934759	      -15.8822237134	        0.2391022242	        0.0000000000	        0.0411034055	        0.0052857235	       -0.0030805359	       -0.0004629777	        0.0000000000	        0.0000000000	        0.0000000000	        0.0000000000	        0.0000000000	        0.0000000000	        0.0000000000	        0.0000000000	        0.0000000000	
        0.1548300506	      -44.9217949230	      667.1261619729	      -16.3906436209	        0.2433585386	        0.0000000000	        0.0410638111	       -0.0255400795	        0.0138367044	        0.0023245879	        0.0000000000	        0.0000000000	        0.0000000000	        0.0000000000	        0.0000000000	        0.0000000000	        0.0000000000	        0.0000000000	        0.0000000000	
        0.1658893400	      -36.9276879766	      641.7052318717	      -16.8899202503	        0.2476916768	        0.0000000000	        0.0410766099	       -0.0178509667	        0.0090905757	        0.0016746479	        0.0000000000	        0.0000000000	        0.0000000000	        0.0000000000	        0.0000000000	        0.0000000000	        0.0000000000	        0.0000000000	        0.0000000000	
        0.1769486293	      -30.3536727503	      620.7396017785	      -17.5014753487	        0.2520542407	        0.0000000000	        0.0411160303	       -0.0125160838	        0.0060455949	        0.0012029849	        0.0000000000	        0.0000000000	        0.0000000000	        0.0000000000	        0.0000000000	        0.0000000000	        0.0000000000	        0.0000000000	        0.0000000000	
        0.1880079186	      -24.7511937263	      604.2946650010	      -17.9705713294	        0.2565598386	        0.0000000000	        0.0411679152	       -0.0113508953	        0.0052406378	        0.0011085689	        0.0000000000	        0.0000000000	        0.0000000000	        0.0000000000	        0.0000000000	        0.0000000000	        0.0000000000	        0.0000000000	        0.0000000000	
        0.1990672080	      -20.3233989008	      592.5973893635	      -18.2784551374	        0.2614148725	        0.0000000000	        0.0412044587	       -0.0138110155	        0.0061306528	        0.0013641606	        0.0000000000	        0.0000000000	        0.0000000000	        0.0000000000	        0.0000000000	        0.0000000000	        0.0000000000	        0.0000000000	        0.0000000000	
        0.2101264973	      -17.1707198025	      585.1945192235	      -18.2323795625	        0.2665785773	        0.0000000000	        0.0412076128	       -0.0217283472	        0.0093190186	        0.0021533258	        0.0000000000	        0.0000000000	        0.0000000000	        0.0000000000	        0.0000000000	        0.0000000000	        0.0000000000	        0.0000000000	        0.0000000000	
        0.2211857866	      -15.2438341509	      581.6963733969	      -18.2104653830	        0.2720945879	        0.0000000000	        0.0411563202	       -0.0411517371	        0.0171272433	        0.0040646487	        0.0000000000	        0.0000000000	        0.0000000000	        0.0000000000	        0.0000000000	        0.0000000000	        0.0000000000	        0.0000000000	        0.0000000000	
        0.2322450760	      -14.2266556770	      580.8198584403	      -18.1444717129	        0.2778236411	        0.0000000000	        0.0410538821	       -0.0862572952	        0.0349813265	        0.0084542089	        0.0000000000	        0.0000000000	        0.0000000000	        0.0000000000	        0.0000000000	        0.0000000000	        0.0000000000	        0.0000000000	        0.0000000000	
        0.2433043653	      -13.2606980345	      581.1915629597	      -18.0415887457	        0.2836511769	        0.0000000000	        0.0409110857	       -0.1842318545	        0.0730765339	        0.0178519368	        0.0000000000	        0.0000000000	        0.0000000000	        0.0000000000	        0.0000000000	        0.0000000000	        0.0000000000	        0.0000000000	        0.0000000000	
        0.2543636546	      -12.0438458486	      581.6213753911	      -17.8979621049	        0.2895056836	        0.0000000000	        0.0407391692	       -0.3729896784	        0.1452401337	        0.0356238055	        0.0000000000	        0.0000000000	        0.0000000000	        0.0000000000	        0.0000000000	        0.0000000000	        0.0000000000	        0.0000000000	        0.0000000000	
        0.2654229439	      -10.6359555194	      581.3853932140	      -17.6786245450	        0.2953237065	        0.0000000000	        0.0405509727	       -0.6769144128	        0.2596824623	        0.0635624354	        0.0000000000	        0.0000000000	        0.0000000000	        0.0000000000	        0.0000000000	        0.0000000000	        0.0000000000	        0.0000000000	        0.0000000000	
        0.2764822333	       -8.8605155308	      579.9550364779	      -17.3154900351	        0.3010701548	        0.0000000000	        0.0403560075	       -1.0667223261	        0.4044816067	        0.0981310596	        0.0000000000	        0.0000000000	        0.0000000000	        0.0000000000	        0.0000000000	        0.0000000000	        0.0000000000	        0.0000000000	        0.0000000000	
        0.2875415226	       -6.6574039947	      576.7102489746	      -17.0412984172	        0.3067098162	        0.0000000000	        0.0401588940	       -1.4477596578	        0.5441876143	        0.1296415893	        0.0000000000	        0.0000000000	        0.0000000000	        0.0000000000	        0.0000000000	        0.0000000000	        0.0000000000	        0.0000000000	        0.0000000000	
        0.2986008119	       -3.6660557630	      571.6406174729	      -16.2884434316	        0.3123038611	        0.0000000000	        0.0399599559	       -1.7107758233	        0.6389119556	        0.1474093943	        0.0000000000	        0.0000000000	        0.0000000000	        0.0000000000	        0.0000000000	        0.0000000000	        0.0000000000	        0.0000000000	        0.0000000000	
        0.3096601013	        0.1857173474	      565.3770251127	      -14.9567851541	        0.3179783123	        0.0000000000	        0.0397453934	       -1.8031078360	        0.6699813376	        0.1468219539	        0.0000000000	        0.0000000000	        0.0000000000	        0.0000000000	        0.0000000000	        0.0000000000	        0.0000000000	        0.0000000000	        0.0000000000	
        0.3207193906	        4.3369373000	      558.3609874005	      -13.2630180077	        0.3237031439	        0.0000000000	        0.0395109576	       -1.7257087170	        0.6384805746	        0.1293351386	        0.0000000000	        0.0000000000	        0.0000000000	        0.0000000000	        0.0000000000	        0.0000000000	        0.0000000000	        0.0000000000	        0.0000000000	
